<svg width="512" height="512" viewBox="0 0 512 512" fill="none" xmlns="http://www.w3.org/2000/svg">
  <!-- White background -->
  <rect width="512" height="512" fill="white"/>

  <!-- Background gradient -->
  <defs>
    <linearGradient id="grad1" x1="0%" y1="0%" x2="100%" y2="100%">
      <stop offset="0%" style="stop-color:#3B82F6;stop-opacity:1" />
      <stop offset="100%" style="stop-color:#8B5CF6;stop-opacity:1" />
    </linearGradient>
  </defs>
  
  <!-- Background rounded square -->
  <rect x="56" y="56" width="400" height="400" rx="100" fill="url(#grad1)" />
  
  <!-- OHF Letters -->
  <path d="M160 176C160 154.909 176.909 138 198 138H314C335.091 138 352 154.909 352 176V336C352 357.091 335.091 374 314 374H198C176.909 374 160 357.091 160 336V176Z" stroke="white" stroke-width="24" stroke-linejoin="round"/>
  
  <!-- Horizontal line -->
  <path d="M160 256H352" stroke="white" stroke-width="24" stroke-linecap="round"/>
  
  <!-- Vertical line -->
  <path d="M256 138V374" stroke="white" stroke-width="24" stroke-linecap="round"/>

  <!-- Corner squares -->
  <rect x="0" y="0" width="120" height="120" fill="#808080"/>
  <rect x="392" y="0" width="120" height="120" fill="#22c55e"/>
  <rect x="0" y="392" width="120" height="120" fill="#808080"/>
  <rect x="392" y="392" width="120" height="120" fill="#808080"/>
</svg>
